<svg width="24" height="24" viewBox="0 0 24 24" fill="none" xmlns="http://www.w3.org/2000/svg">
<path d="M12.5 2C6.70156 2 2 6.70156 2 12.5C2 18.2984 6.70156 23 12.5 23C18.2984 23 23 18.2984 23 12.5C23 6.70156 18.2984 2 12.5 2ZM13.25 17.5625C13.25 17.6656 13.1656 17.75 13.0625 17.75H11.9375C11.8344 17.75 11.75 17.6656 11.75 17.5625V11.1875C11.75 11.0844 11.8344 11 11.9375 11H13.0625C13.1656 11 13.25 11.0844 13.25 11.1875V17.5625ZM12.5 9.5C12.2056 9.49399 11.9253 9.37282 11.7192 9.1625C11.5132 8.95218 11.3977 8.66945 11.3977 8.375C11.3977 8.08055 11.5132 7.79782 11.7192 7.5875C11.9253 7.37718 12.2056 7.25601 12.5 7.25C12.7944 7.25601 13.0747 7.37718 13.2808 7.5875C13.4868 7.79782 13.6023 8.08055 13.6023 8.375C13.6023 8.66945 13.4868 8.95218 13.2808 9.1625C13.0747 9.37282 12.7944 9.49399 12.5 9.5Z" fill="#999FBF"/>
</svg>
