<svg width="24" height="24" viewBox="0 0 24 24" fill="none" xmlns="http://www.w3.org/2000/svg">
<path d="M20.2103 5.57143H19.1469C19.1458 5.57143 19.1448 5.57185 19.144 5.57261C19.1433 5.57336 19.1429 5.57438 19.1429 5.57545V19.1429C19.1429 19.5217 19.2934 19.8851 19.5613 20.153C19.8292 20.4209 20.1925 20.5714 20.5714 20.5714C20.9503 20.5714 21.3137 20.4209 21.5816 20.153C21.8495 19.8851 22 19.5217 22 19.1429V7.36116C22 6.88649 21.8114 6.43127 21.4758 6.09563C21.1402 5.75999 20.6849 5.57143 20.2103 5.57143Z" fill="#999FBF"/>
<path d="M17.7143 19.1429V3.78571C17.7143 3.55121 17.6681 3.319 17.5784 3.10235C17.4886 2.8857 17.3571 2.68884 17.1913 2.52302C17.0254 2.3572 16.8286 2.22567 16.6119 2.13593C16.3953 2.04619 16.1631 2 15.9286 2H3.78571C3.31211 2 2.85791 2.18814 2.52302 2.52302C2.18814 2.85791 2 3.31211 2 3.78571V19.5C2 20.163 2.26339 20.7989 2.73223 21.2678C3.20107 21.7366 3.83696 22 4.5 22H19.8058C19.8126 22.0001 19.8193 21.9988 19.8255 21.9962C19.8318 21.9937 19.8375 21.9899 19.8422 21.9851C19.847 21.9803 19.8508 21.9746 19.8534 21.9684C19.8559 21.9621 19.8572 21.9554 19.8571 21.9487C19.8571 21.9374 19.8534 21.9265 19.8465 21.9177C19.8397 21.9088 19.8301 21.9024 19.8192 21.8996C19.215 21.7338 18.6818 21.3744 18.3016 20.8764C17.9214 20.3784 17.715 19.7694 17.7143 19.1429ZM4.85714 6.28571C4.85714 6.09627 4.9324 5.91459 5.06635 5.78064C5.20031 5.64668 5.38199 5.57143 5.57143 5.57143H8.42857C8.61801 5.57143 8.79969 5.64668 8.93365 5.78064C9.0676 5.91459 9.14286 6.09627 9.14286 6.28571V9.14286C9.14286 9.3323 9.0676 9.51398 8.93365 9.64793C8.79969 9.78189 8.61801 9.85714 8.42857 9.85714H5.57143C5.38199 9.85714 5.20031 9.78189 5.06635 9.64793C4.9324 9.51398 4.85714 9.3323 4.85714 9.14286V6.28571ZM14.1429 18.4286H5.59152C5.20714 18.4286 4.87723 18.133 4.85804 17.7487C4.85338 17.6521 4.86839 17.5556 4.90214 17.465C4.93589 17.3743 4.98768 17.2915 5.05438 17.2215C5.12109 17.1515 5.20131 17.0958 5.29018 17.0577C5.37906 17.0196 5.47474 17 5.57143 17H14.1228C14.5071 17 14.8371 17.2955 14.8563 17.6799C14.8609 17.7765 14.8459 17.873 14.8121 17.9636C14.7784 18.0542 14.7266 18.137 14.6599 18.207C14.5932 18.277 14.513 18.3328 14.4241 18.3708C14.3352 18.4089 14.2395 18.4286 14.1429 18.4286ZM14.1429 15.5714H5.59152C5.20714 15.5714 4.87723 15.2759 4.85804 14.8915C4.85338 14.7949 4.86839 14.6984 4.90214 14.6078C4.93589 14.5172 4.98768 14.4344 5.05438 14.3644C5.12109 14.2944 5.20131 14.2387 5.29018 14.2006C5.37906 14.1625 5.47474 14.1429 5.57143 14.1429H14.1228C14.5071 14.1429 14.8371 14.4384 14.8563 14.8228C14.8609 14.9193 14.8459 15.0159 14.8121 15.1065C14.7784 15.1971 14.7266 15.2799 14.6599 15.3499C14.5932 15.4199 14.513 15.4756 14.4241 15.5137C14.3352 15.5518 14.2395 15.5714 14.1429 15.5714ZM14.1429 12.7143H5.59152C5.20714 12.7143 4.87723 12.4187 4.85804 12.0344C4.85338 11.9378 4.86839 11.8413 4.90214 11.7507C4.93589 11.6601 4.98768 11.5773 5.05438 11.5073C5.12109 11.4373 5.20131 11.3815 5.29018 11.3434C5.37906 11.3054 5.47474 11.2857 5.57143 11.2857H14.1228C14.5071 11.2857 14.8371 11.5813 14.8563 11.9656C14.8609 12.0622 14.8459 12.1587 14.8121 12.2493C14.7784 12.3399 14.7266 12.4228 14.6599 12.4928C14.5932 12.5627 14.513 12.6185 14.4241 12.6566C14.3352 12.6946 14.2395 12.7143 14.1429 12.7143ZM14.1429 9.85714H11.3058C10.9214 9.85714 10.5915 9.56161 10.5723 9.17723C10.5677 9.08065 10.5827 8.98414 10.6164 8.89353C10.6502 8.80292 10.702 8.72011 10.7687 8.65011C10.8354 8.58011 10.9156 8.52438 11.0045 8.4863C11.0933 8.44822 11.189 8.42858 11.2857 8.42857H14.1228C14.5071 8.42857 14.8371 8.72411 14.8563 9.10848C14.8609 9.20506 14.8459 9.30158 14.8121 9.39219C14.7784 9.4828 14.7266 9.56561 14.6599 9.63561C14.5932 9.70561 14.513 9.76133 14.4241 9.79941C14.3352 9.83749 14.2395 9.85713 14.1429 9.85714ZM14.1429 7H11.3058C10.9214 7 10.5915 6.70446 10.5723 6.32009C10.5677 6.22351 10.5827 6.12699 10.6164 6.03639C10.6502 5.94578 10.702 5.86296 10.7687 5.79296C10.8354 5.72297 10.9156 5.66724 11.0045 5.62916C11.0933 5.59108 11.189 5.57144 11.2857 5.57143H14.1228C14.5071 5.57143 14.8371 5.86696 14.8563 6.25134C14.8609 6.34792 14.8459 6.44444 14.8121 6.53504C14.7784 6.62565 14.7266 6.70846 14.6599 6.77846C14.5932 6.84846 14.513 6.90419 14.4241 6.94227C14.3352 6.98035 14.2395 6.99999 14.1429 7Z" fill="#999FBF"/>
</svg>
