<svg width="24" height="24" viewBox="0 0 24 24" fill="none" xmlns="http://www.w3.org/2000/svg">
<path fill-rule="evenodd" clip-rule="evenodd" d="M5 3C3.89543 3 3 3.89543 3 5V19C3 20.1046 3.89543 21 5 21H19C20.1046 21 21 20.1046 21 19V5C21 3.89543 20.1046 3 19 3H5ZM8 12C7.44772 12 7 12.4477 7 13V16C7 16.5523 7.44772 17 8 17C8.55228 17 9 16.5523 9 16V13C9 12.4477 8.55228 12 8 12ZM11 8C11 7.44772 11.4477 7 12 7C12.5523 7 13 7.44772 13 8V16C13 16.5523 12.5523 17 12 17C11.4477 17 11 16.5523 11 16V8ZM16 10C15.4477 10 15 10.4477 15 11V16C15 16.5523 15.4477 17 16 17C16.5523 17 17 16.5523 17 16V11C17 10.4477 16.5523 10 16 10Z" fill="#999FBF"/>
</svg>
